<svg xmlns="http://www.w3.org/2000/svg" id="prefix__noun_sent_2966355" width="118.407" height="103.306" viewBox="0 0 118.407 103.306">
    <g id="prefix__Group_393" data-name="Group 393">
        <path id="prefix__Path_396" d="M8.432 61.489a2.016 2.016 0 0 1-.764-.764 2.45 2.45 0 0 1-.208-.972 1.758 1.758 0 0 1 .347-1.041 2.2 2.2 0 0 1 .833-.625l114.673-44.493a1.975 1.975 0 0 1 1.041-.139 1.667 1.667 0 0 1 .9.555 1.667 1.667 0 0 1 .555.9 1.6 1.6 0 0 1-.069 1.041L93.4 106.192a.616.616 0 0 0-.069.278h-.069a1.67 1.67 0 0 1-1.041.9h-.139a1.83 1.83 0 0 1-1.388-.139L65.56 93.42q-2.568 3.124-22 22.837a1.088 1.088 0 0 1-.278.208 1.944 1.944 0 0 1-.972.278h-.347a2.075 2.075 0 0 1-1.18-.694v-.069a1.638 1.638 0 0 1-.347-.764l-8.26-40.33-23.74-13.4m35.953 19.023a1.124 1.124 0 0 1 .208-.694l.069-.069a1.263 1.263 0 0 1 .416-.555l54.49-45.813-63.583 41.161 5.761 28.39 2.638-22.421m-10.62-9.024L107.417 23.8l-93.64 36.371 19.991 11.314m56.851 31.375l29.223-81.56-70.248 59 41.024 22.56m-45.814 6.8l17.355-18.114L47.79 83.7z" data-name="Path 396" transform="translate(-7.46 -13.438)" style="fill:#142640"/>
    </g>
</svg>
